<?xml version="1.0" encoding="UTF-8" standalone="no"?>
<!-- Generator: Adobe Illustrator 19.0.0, SVG Export Plug-In . SVG Version: 6.00 Build 0)  -->

<svg
   xmlns:dc="http://purl.org/dc/elements/1.1/"
   xmlns:cc="http://creativecommons.org/ns#"
   xmlns:rdf="http://www.w3.org/1999/02/22-rdf-syntax-ns#"
   xmlns:svg="http://www.w3.org/2000/svg"
   xmlns="http://www.w3.org/2000/svg"
   xmlns:sodipodi="http://sodipodi.sourceforge.net/DTD/sodipodi-0.dtd"
   xmlns:inkscape="http://www.inkscape.org/namespaces/inkscape"
   version="1.1"
   id="Layer_1"
   x="0px"
   y="0px"
   viewBox="0 0 496.158 496.158"
   style="enable-background:new 0 0 496.158 496.158;"
   xml:space="preserve"
   sodipodi:docname="crossRed.svg"
   inkscape:version="0.92.4 (5da689c313, 2019-01-14)"><metadata
   id="metadata41"><rdf:RDF><cc:Work
       rdf:about=""><dc:format>image/svg+xml</dc:format><dc:type
         rdf:resource="http://purl.org/dc/dcmitype/StillImage" /></cc:Work></rdf:RDF></metadata><defs
   id="defs39" /><sodipodi:namedview
   pagecolor="#ffffff"
   bordercolor="#666666"
   borderopacity="1"
   objecttolerance="10"
   gridtolerance="10"
   guidetolerance="10"
   inkscape:pageopacity="0"
   inkscape:pageshadow="2"
   inkscape:window-width="1920"
   inkscape:window-height="1017"
   id="namedview37"
   showgrid="false"
   inkscape:zoom="0.47565494"
   inkscape:cx="248.07899"
   inkscape:cy="248.07899"
   inkscape:window-x="1912"
   inkscape:window-y="-8"
   inkscape:window-maximized="1"
   inkscape:current-layer="Layer_1" />
<path
   style="fill:#E04F5F;"
   d="M 248.08203 0.00390625 C 111.07003 0.00390625 1.8947806e-14 111.06394 0 248.08594 C 0 385.08794 111.07003 496.1543 248.08203 496.1543 C 385.08803 496.1543 496.1582 385.08794 496.1582 248.08594 C 496.1582 111.06494 385.08803 0.00390625 248.08203 0.00390625 z M 162.74219 127.62109 C 169.0657 127.48713 175.39828 130.07198 179.84766 135.24023 L 248.07617 214.45312 L 316.3125 135.24023 C 324.2275 126.05823 338.08777 125.03155 347.25977 132.93555 C 356.44577 140.84555 357.48031 154.70472 349.57031 163.88672 L 277.04297 248.08203 L 349.57031 332.27344 C 357.48031 341.45444 356.44772 355.31461 347.26172 363.22461 C 343.11872 366.79361 338.01822 368.54297 332.94922 368.54297 C 326.78222 368.54297 320.6505 365.96092 316.3125 360.91992 L 248.07617 281.70703 L 179.84766 360.91992 C 175.50366 365.95792 169.37194 368.54297 163.21094 368.54297 C 158.13594 368.54297 153.03753 366.79361 148.89453 363.22461 C 139.70853 355.31461 138.67984 341.45544 146.58984 332.27344 L 219.11133 248.08203 L 146.58984 163.88672 C 138.67984 154.70572 139.70853 140.84555 148.89453 132.93555 C 152.91209 129.47492 157.8239 127.72529 162.74219 127.62109 z "
   id="path2" />

<g
   id="g6">
</g>
<g
   id="g8">
</g>
<g
   id="g10">
</g>
<g
   id="g12">
</g>
<g
   id="g14">
</g>
<g
   id="g16">
</g>
<g
   id="g18">
</g>
<g
   id="g20">
</g>
<g
   id="g22">
</g>
<g
   id="g24">
</g>
<g
   id="g26">
</g>
<g
   id="g28">
</g>
<g
   id="g30">
</g>
<g
   id="g32">
</g>
<g
   id="g34">
</g>
</svg>